HIERARCHY
ROOT Hips
{
	OFFSET 0.00000 0.00000 0.00000
	CHANNELS 6 Xposition Yposition Zposition Zrotation Yrotation Xrotation 
	JOINT RightUpLegDummy
	{
		OFFSET 0 0 0
		CHANNELS 3 Zrotation Yrotation Xrotation
		JOINT RightUpLeg
		{
			OFFSET -3.52197 -3.41223 0.04002
			CHANNELS 3 Zrotation Yrotation Xrotation
			JOINT RightLeg
			{
				OFFSET 0.00006 -17.42390 1.60435
				CHANNELS 3 Zrotation Yrotation Xrotation
				JOINT RightFoot
				{
					OFFSET 0.06153 -16.50078 -1.63901
					CHANNELS 3 Zrotation Yrotation Xrotation
					JOINT RightToes
					{
						OFFSET 0.00298 -1.73825 3.34613
						CHANNELS 3 Zrotation Yrotation Xrotation
						End Site
						{
							OFFSET 0.00480 -0.05416 3.85043
						}
					}
				}
			}
		}
	}
	JOINT SpineDummy
	{
		OFFSET 0 0 0
		CHANNELS 3 Zrotation Yrotation Xrotation
		JOINT Spine
		{
			OFFSET 0.00000 4.68130 0.00000
			CHANNELS 3 Zrotation Yrotation Xrotation
			JOINT Spine1
			{
				OFFSET -0.00000 10.10138 0.05002
				CHANNELS 3 Zrotation Yrotation Xrotation
				JOINT HEadDummy
				{
					OFFSET 0 0 0
					CHANNELS 3 Zrotation Yrotation Xrotation
					JOINT Head
					{
						OFFSET -0.00000 3.43865 0.00438
						CHANNELS 3 Zrotation Yrotation Xrotation
						End Site
						{
							OFFSET -0.11417 5.02924 0.98962
						}
					}
				}
				JOINT LeftShoulder1Dummy
				{
					OFFSET 0 0 0
					CHANNELS 3 Zrotation Yrotation Xrotation
					JOINT LeftShoulder1
					{
						OFFSET 3.53937 -0.14262 -0.08662
						CHANNELS 3 Zrotation Yrotation Xrotation
						JOINT LeftArm
						{
							OFFSET 4.04833 -0.00133 0.12681
							CHANNELS 3 Zrotation Yrotation Xrotation
							JOINT LeftForeArm
							{
								OFFSET 10.33880 -0.01036 -0.55515
								CHANNELS 3 Zrotation Yrotation Xrotation
								JOINT LeftHand
								{
									OFFSET 8.69677 0.07543 0.40060
									CHANNELS 3 Zrotation Yrotation Xrotation
									End Site
									{
										OFFSET 5.28377 -0.21905 0.59205
									}
								}
							}
						}
					}
				}
				JOINT RightShoulderDummy
				{
					OFFSET 0 0 0
					CHANNELS 3 Zrotation Yrotation Xrotation
					JOINT RightShoulder
					{
						OFFSET -3.53937 -0.14262 -0.08660
						CHANNELS 3 Zrotation Yrotation Xrotation
						JOINT RightArm
						{
							OFFSET -4.04833 -0.00133 0.12683
							CHANNELS 3 Zrotation Yrotation Xrotation
							JOINT RightForeArm
							{
								OFFSET -10.37987 -0.01039 -0.55511
								CHANNELS 3 Zrotation Yrotation Xrotation
								JOINT RightHand
								{
									OFFSET -8.67398 0.07538 0.40058
									CHANNELS 3 Zrotation Yrotation Xrotation
									End Site
									{
										OFFSET -5.24810 -0.21916 0.59204
									}
								}
							}
						}
					}
				}
			}
		}
	}
	JOINT LeftUpLegDummy
	{
		OFFSET 0 0 0
		CHANNELS 3 Zrotation Yrotation Xrotation
		JOINT LeftUpLeg
		{
			OFFSET 3.52197 -3.41223 0.04002
			CHANNELS 3 Zrotation Yrotation Xrotation
			JOINT LeftLeg
			{
				OFFSET -0.00012 -17.42399 1.60337
				CHANNELS 3 Zrotation Yrotation Xrotation
				JOINT LeftFoot
				{
					OFFSET -0.09972 -16.50070 -1.63802
					CHANNELS 3 Zrotation Yrotation Xrotation
					JOINT LeftToes
					{
						OFFSET -0.01575 -1.73823 3.34611
						CHANNELS 3 Zrotation Yrotation Xrotation
						End Site
						{
							OFFSET 0.03150 -0.01868 3.85031
						}
					}
				}
			}
		}
	}
}
MOTION
Frames: 17
Frame Time: 0.033333
-25.7823 39.1726 -38.8198 -1.1967 34.6038 -6.0848 0.0000 0.0000 0.0000 0.5209 -11.8549 10.9624 1.8745 4.5863 19.2306 0.2181 -0.0429 -13.3688 0.0000 -0.0000 0.0000 0.0000 0.0000 0.0000 1.7130 0.7603 7.6445 1.1771 0.5903 -0.4700 -0.0000 0.0000 -0.0000 3.6016 -3.5534 2.3399 -0.0000 0.0000 -0.0000 -34.9873 -2.6812 2.5378 -42.7673 -12.5862 -20.3539 -9.0478 5.0425 51.4994 12.5654 -3.7501 -0.9592 -0.0000 0.0000 -0.0000 34.3266 5.0823 3.4636 36.2867 5.8683 -17.3050 10.4957 3.0195 21.0498 -9.5832 2.2873 -0.6145 0.0000 0.0000 0.0000 -2.1342 -0.2037 -11.2634 -0.1686 6.1114 8.0501 -2.5555 0.3047 3.1046 0.0000 0.0000 -0.0000
-25.0976 39.0286 -38.0338 -0.7294 34.4408 -5.9848 0.0000 0.0000 0.0000 -1.4070 -13.2654 8.9101 3.7085 6.1847 26.7671 4.5641 -0.0931 -10.4775 0.0000 -0.0000 0.0000 0.0000 0.0000 0.0000 0.7774 0.6904 7.7007 1.4141 0.4715 -0.9673 -0.0000 0.0000 -0.0000 4.0199 -4.2613 2.8882 -0.0000 0.0000 -0.0000 -34.9119 -2.6381 2.5154 -42.7483 -12.3294 -20.4096 -9.0371 5.0399 51.5862 12.6174 -3.8086 -0.9693 -0.0000 0.0000 -0.0000 34.5087 5.1043 3.4884 36.7131 4.8703 -18.0855 10.2537 2.2872 21.2700 -10.0499 2.2110 -0.6395 0.0000 0.0000 0.0000 -2.5907 0.1618 -11.3392 -0.3562 5.7738 11.6455 -1.6028 0.1785 1.9318 0.0000 0.0000 -0.0000
-24.4869 38.8607 -37.3390 0.0474 34.0249 -5.7751 0.0000 0.0000 0.0000 -3.1468 -12.8321 5.1461 5.0473 5.9297 36.3144 12.1678 -0.7217 -4.9744 0.0000 -0.0000 0.0000 0.0000 0.0000 0.0000 -0.3468 0.6467 8.5236 1.5187 0.4192 -1.9422 -0.0000 0.0000 -0.0000 4.3520 -5.0970 3.1740 -0.0000 0.0000 -0.0000 -34.4855 -2.5502 2.4533 -42.9617 -12.3718 -20.3462 -9.0322 5.0415 51.5366 12.6238 -3.8389 -0.9729 -0.0000 0.0000 -0.0000 34.3285 5.0612 3.4553 37.7988 4.0083 -18.9320 9.9105 1.8920 21.4871 -10.1325 2.1201 -0.6377 0.0000 0.0000 0.0000 -3.2946 0.4128 -11.4647 -0.3472 6.0138 15.4676 0.1693 -0.0037 -1.4367 0.0000 0.0000 -0.0000
-23.9468 38.6491 -36.7017 0.6534 33.3350 -5.8846 0.0000 0.0000 0.0000 -4.0821 -10.7546 0.7002 4.8677 4.1309 45.6817 18.7233 -1.9751 0.7507 0.0000 -0.0000 0.0000 0.0000 0.0000 0.0000 -1.3200 0.6336 9.8566 1.6951 0.3795 -2.8223 -0.0000 0.0000 -0.0000 4.4481 -5.6498 2.8033 -0.0000 0.0000 -0.0000 -34.1688 -2.4747 2.4035 -42.9464 -12.7118 -19.8185 -9.3385 5.0591 50.8509 12.4603 -3.8863 -0.9645 -0.0000 0.0000 -0.0000 34.1292 5.0264 3.4241 38.8240 3.4846 -19.3022 9.7364 1.9837 21.4544 -9.8108 2.1843 -0.6217 0.0000 0.0000 0.0000 -3.8481 0.7097 -11.2679 -0.1141 6.4203 19.0419 1.5634 -0.0649 -4.7364 0.0000 0.0000 -0.0000
-23.4082 38.5099 -36.0431 0.6390 32.6585 -6.4279 0.0000 0.0000 0.0000 -4.0066 -8.3901 -3.3238 3.4745 2.3413 52.5274 19.6730 -2.5387 3.3410 0.0000 -0.0000 0.0000 0.0000 0.0000 0.0000 -1.7120 0.4454 10.9941 1.9345 0.1385 -3.1794 -0.0000 0.0000 -0.0000 4.2637 -5.5803 1.7948 -0.0000 0.0000 -0.0000 -34.3546 -2.4612 2.4093 -42.3083 -13.2008 -19.0210 -9.8971 5.0859 49.7569 12.4061 -3.9837 -0.9698 -0.0000 0.0000 -0.0000 34.2635 5.0621 3.4501 39.1987 3.4365 -18.8785 9.8966 2.1482 21.4164 -9.5951 2.3408 -0.6193 0.0000 0.0000 0.0000 -3.8841 1.0947 -10.4022 0.1902 6.6323 21.4452 1.6822 -0.0253 -6.8800 0.0000 0.0000 -0.0000
-22.8227 38.5454 -35.3142 0.0095 32.3366 -7.1592 0.0000 0.0000 0.0000 -3.1375 -6.5213 -6.5330 1.2306 0.8455 55.6260 15.5790 -1.8891 2.3928 0.0000 -0.0000 0.0000 0.0000 0.0000 0.0000 -1.5248 -0.0542 11.5242 2.1590 -0.4197 -3.0688 -0.0000 0.0000 -0.0000 3.9294 -5.0497 0.5141 -0.0000 0.0000 -0.0000 -34.6845 -2.4924 2.4420 -41.4701 -13.9436 -18.5914 -10.2015 5.0977 49.2430 12.7785 -4.0552 -1.0076 -0.0000 0.0000 -0.0000 34.5662 5.1220 3.5006 39.2597 3.7018 -18.0979 10.1941 2.1479 21.6190 -9.6562 2.3827 -0.6265 0.0000 0.0000 0.0000 -3.4821 1.4322 -8.7782 0.4125 6.5078 22.2425 1.4705 0.0136 -8.4170 0.0000 0.0000 -0.0000
-22.2244 38.6610 -34.5449 -0.8195 32.3225 -7.7720 0.0000 0.0000 0.0000 -1.9831 -4.9274 -9.0669 -1.8557 -0.8659 55.2376 10.5990 -1.0598 0.0709 0.0000 -0.0000 0.0000 0.0000 0.0000 0.0000 -1.2393 -0.6844 11.6244 2.4566 -1.1246 -2.8281 -0.0000 0.0000 -0.0000 3.6424 -4.4962 -0.5781 -0.0000 0.0000 -0.0000 -34.5638 -2.5260 2.4482 -41.1479 -15.0951 -18.7348 -10.0003 5.0873 49.6678 13.3604 -3.9874 -1.0480 -0.0000 0.0000 -0.0000 34.6588 5.1370 3.5148 39.6217 3.8958 -17.6380 10.3337 2.2549 21.8196 -9.6144 2.2900 -0.6168 0.0000 0.0000 0.0000 -2.9629 1.6896 -6.8982 0.5373 6.1902 22.2261 1.6712 0.0386 -9.8983 0.0000 0.0000 -0.0000
-21.6514 38.7538 -33.7675 -1.4994 32.3093 -8.1227 0.0000 0.0000 0.0000 -0.9324 -3.2965 -11.1404 -4.9021 -2.8971 52.3182 7.1186 -0.6102 -1.6037 0.0000 -0.0000 0.0000 0.0000 0.0000 0.0000 -1.2453 -1.1806 11.5479 3.0024 -1.7441 -2.6340 -0.0000 0.0000 -0.0000 3.4635 -4.1227 -1.2094 -0.0000 0.0000 -0.0000 -34.0858 -2.5584 2.4320 -41.3178 -16.4655 -18.9796 -9.6471 5.0761 50.1816 13.5776 -3.7743 -1.0425 -0.0000 0.0000 -0.0000 34.5249 5.1177 3.4952 40.2057 3.8079 -17.5738 10.3105 2.6885 21.6329 -9.3357 2.2274 -0.5937 0.0000 0.0000 0.0000 -2.5017 1.9063 -5.1172 0.6172 5.9100 21.9933 1.6067 0.0638 -11.1534 0.0000 0.0000 -0.0000
-21.0952 38.8605 -32.9884 -2.0632 32.1572 -8.2859 0.0000 0.0000 0.0000 0.0018 -1.9375 -12.6753 -6.8944 -5.0487 47.2434 4.7030 -0.3691 -2.6057 0.0000 -0.0000 0.0000 0.0000 0.0000 0.0000 -1.4300 -1.5092 11.3695 3.7709 -2.2401 -2.4608 -0.0000 0.0000 -0.0000 3.3368 -3.8110 -1.5176 -0.0000 0.0000 -0.0000 -33.8255 -2.5977 2.4317 -41.3718 -17.7036 -18.8387 -9.5999 5.0805 50.0509 13.2937 -3.5406 -0.9947 -0.0000 0.0000 -0.0000 34.4422 5.1167 3.4876 40.4936 3.5851 -17.4720 10.3436 3.1755 21.0729 -9.2380 2.2340 -0.5878 0.0000 0.0000 0.0000 -2.0683 2.0728 -3.2303 0.6949 5.7540 21.2028 0.8737 0.0770 -12.0034 0.0000 0.0000 -0.0000
-20.5428 39.0039 -32.2151 -2.6357 31.8999 -8.3818 0.0000 0.0000 0.0000 0.9609 -1.2991 -13.4458 -7.2778 -6.9179 40.0260 3.0276 -0.2188 -3.5634 0.0000 -0.0000 0.0000 0.0000 0.0000 0.0000 -1.5049 -1.7671 11.1437 4.4876 -2.6551 -2.2859 -0.0000 0.0000 -0.0000 3.2776 -3.4726 -1.8764 -0.0000 0.0000 -0.0000 -33.8778 -2.6195 2.4436 -41.1519 -18.6712 -18.2962 -9.8738 5.0917 49.5734 13.0284 -3.4165 -0.9610 -0.0000 0.0000 -0.0000 34.5021 5.1370 3.5010 40.4243 3.4707 -17.2215 10.4721 3.2829 20.5856 -9.5447 2.2086 -0.6061 0.0000 0.0000 0.0000 -1.6547 2.1813 -1.1103 0.8218 5.7501 19.7659 0.2067 0.0789 -12.7037 0.0000 0.0000 -0.0000
-19.9983 39.1285 -31.4469 -3.0534 31.4975 -8.3299 0.0000 0.0000 0.0000 1.9585 -1.4860 -13.4668 -6.0834 -7.8583 31.1963 2.0846 -0.1516 -3.6386 0.0000 -0.0000 0.0000 0.0000 0.0000 0.0000 -1.4901 -1.9445 10.8614 4.9124 -2.9335 -2.1043 -0.0000 0.0000 -0.0000 3.3808 -3.2638 -2.4318 -0.0000 0.0000 -0.0000 -33.8334 -2.6055 2.4353 -41.0555 -19.3781 -17.5616 -10.2392 5.1005 49.1309 13.2125 -3.4613 -0.9800 -0.0000 0.0000 -0.0000 34.5538 5.1427 3.5079 40.3863 3.5008 -17.2244 10.4985 2.9256 20.6003 -9.8413 2.1168 -0.6185 0.0000 0.0000 0.0000 -1.4312 2.2316 1.0647 1.0273 6.0573 18.0735 0.0507 0.0811 -13.3547 0.0000 0.0000 -0.0000
-19.4792 39.2285 -30.6840 -3.0948 30.8705 -7.9879 0.0000 0.0000 0.0000 3.0247 -2.7128 -12.9091 -4.2373 -7.7342 21.5894 2.1646 -0.1953 -1.5043 0.0000 -0.0000 0.0000 0.0000 0.0000 0.0000 -1.6233 -1.9571 10.4704 5.1211 -3.0071 -1.8941 -0.0000 0.0000 -0.0000 3.6427 -3.3651 -3.0059 -0.0000 0.0000 -0.0000 -33.6331 -2.5900 2.4167 -41.1769 -19.8183 -16.7766 -10.6268 5.1168 48.4125 13.5823 -3.6334 -1.0273 -0.0000 0.0000 -0.0000 34.5474 5.1319 3.5029 40.4741 3.5545 -17.6988 10.3221 2.3167 21.1340 -9.7404 2.0690 -0.6083 0.0000 0.0000 0.0000 -1.5421 2.2045 3.2297 1.2424 6.7833 16.1043 0.0138 0.0819 -13.6078 0.0000 0.0000 -0.0000
-19.0022 39.3275 -29.9326 -2.8499 30.0341 -7.4500 0.0000 0.0000 0.0000 4.0044 -4.3770 -11.7752 -2.4835 -8.4248 11.9061 4.1810 -0.4979 2.2578 0.0000 -0.0000 0.0000 0.0000 0.0000 0.0000 -1.9747 -1.7915 10.0128 5.3681 -2.9060 -1.6439 -0.0000 0.0000 -0.0000 3.9239 -3.6930 -3.4289 -0.0000 0.0000 -0.0000 -33.6477 -2.6087 2.4251 -41.1787 -20.0702 -16.1274 -11.0084 5.1445 47.2825 13.6559 -3.8076 -1.0523 -0.0000 0.0000 -0.0000 34.5856 5.1332 3.5068 40.4185 3.5626 -18.2926 10.1004 1.6367 21.8319 -9.4818 2.1376 -0.5967 0.0000 0.0000 0.0000 -1.8364 2.1869 5.3500 1.3048 7.7280 13.9665 -0.0210 0.0807 -13.5244 0.0000 0.0000 -0.0000
-18.5566 39.3856 -29.1682 -2.4837 29.0172 -6.8956 0.0000 0.0000 0.0000 3.9412 -2.9190 -10.2508 -0.4505 -13.7307 3.5675 6.9333 -0.9958 5.3912 0.0000 -0.0000 0.0000 0.0000 0.0000 0.0000 -2.4222 -1.5094 9.5051 5.6554 -2.6886 -1.3520 -0.0000 0.0000 -0.0000 4.1398 -3.9818 -3.6337 -0.0000 0.0000 -0.0000 -33.8957 -2.6279 2.4480 -41.0330 -20.2269 -15.7898 -11.2485 5.1683 46.3280 13.4783 -3.8557 -1.0434 -0.0000 0.0000 -0.0000 34.6458 5.1456 3.5171 40.2405 3.5220 -18.6150 9.9972 0.9469 22.3728 -9.4445 2.1891 -0.5981 0.0000 0.0000 0.0000 -2.0681 2.3769 7.2692 1.0667 8.6202 12.3353 0.1786 0.0862 -13.7321 0.0000 0.0000 -0.0000
-18.1180 39.3797 -28.3597 -1.9408 27.8623 -6.3236 0.0000 0.0000 0.0000 3.7225 0.0351 -9.2815 0.8175 -19.4821 -1.1026 7.2184 -1.1136 6.5885 0.0000 -0.0000 0.0000 0.0000 0.0000 0.0000 -2.8573 -1.2148 8.8879 5.6969 -2.4023 -1.0754 -0.0000 0.0000 -0.0000 4.3045 -4.1200 -3.4632 -0.0000 0.0000 -0.0000 -33.9973 -2.6001 2.4432 -41.0421 -20.1171 -15.6510 -11.3451 5.1790 45.8941 13.3803 -3.7912 -1.0285 -0.0000 0.0000 -0.0000 34.5989 5.1420 3.5116 40.2910 3.3809 -18.7383 9.9664 0.3394 22.7174 -9.5173 2.0636 -0.5935 0.0000 0.0000 0.0000 -2.2172 2.8439 9.0484 0.4287 9.3330 11.2611 0.2887 0.0924 -14.2198 0.0000 0.0000 -0.0000
-17.6775 39.3684 -27.5183 -1.3056 26.8072 -5.7974 0.0000 0.0000 0.0000 4.3113 0.6398 -9.0489 0.0842 -20.1810 -1.3990 3.9982 -0.6152 6.8819 0.0000 -0.0000 0.0000 0.0000 0.0000 0.0000 -3.0796 -1.0644 8.2636 5.3666 -2.1591 -0.9522 -0.0000 0.0000 -0.0000 4.3502 -4.2321 -2.8403 -0.0000 0.0000 -0.0000 -33.9736 -2.5589 2.4253 -41.1123 -19.5112 -15.5102 -11.4717 5.1844 45.6376 13.3575 -3.7703 -1.0244 -0.0000 0.0000 -0.0000 34.5376 5.1325 3.5023 40.5362 3.0880 -18.9135 9.9118 -0.0897 22.9038 -9.4255 1.8757 -0.5738 0.0000 0.0000 0.0000 -2.1644 3.9557 10.8732 -0.5710 9.1315 10.3402 -0.0672 0.0841 -14.3006 0.0000 0.0000 -0.0000
-17.1993 39.3389 -26.6427 -1.0508 26.1518 -5.6651 0.0000 0.0000 0.0000 4.7626 0.8922 -8.9272 -1.0178 -19.0387 0.9871 -0.2771 0.0685 6.8326 0.0000 -0.0000 0.0000 0.0000 0.0000 0.0000 -2.6048 -1.1762 7.6069 4.7326 -2.1258 -0.6660 -0.0000 0.0000 -0.0000 4.1485 -4.4063 -2.1164 -0.0000 0.0000 -0.0000 -34.2663 -2.5672 2.4466 -40.8888 -18.6244 -15.5845 -11.5707 5.1865 45.5121 13.2964 -3.8455 -1.0276 -0.0000 0.0000 -0.0000 34.7131 5.1577 3.5280 40.4754 2.7602 -19.1466 9.8681 -0.4369 22.8856 -9.2938 1.8797 -0.5658 0.0000 0.0000 0.0000 -1.2483 7.7564 12.2932 -1.3815 5.6520 11.0696 -0.4740 0.0734 -14.3032 0.0000 0.0000 -0.0000
